<svg xmlns="http://www.w3.org/2000/svg" viewBox="0 0 246.96 240.56"><path d="M52.26,54.7H26.52v-23h81.11v23H81.89v64.92H52.26Z" transform="translate(-26.52 -29.72)"/><path d="M188.36,97.27v22.35H115.28V31.73h71.45V54.08H144.41V64.37h37.17V85.72H144.41V97.27Z" transform="translate(-26.52 -29.72)"/><path d="M211.27,119.18a56.91,56.91,0,0,1-17-6.6L203.8,91a60.84,60.84,0,0,0,14.06,5.84A55.13,55.13,0,0,0,232.8,99c4.1,0,7-.39,8.79-1.19a3.83,3.83,0,0,0,2.64-3.58q0-2.76-3.46-4.14a74.31,74.31,0,0,0-11.36-3,128.64,128.64,0,0,1-16.95-4.59,28.9,28.9,0,0,1-11.8-8q-5-5.58-5-15.13a26.13,26.13,0,0,1,4.64-15.07q4.65-6.78,13.88-10.67t22.41-3.89a81.69,81.69,0,0,1,17.76,1.94,55.86,55.86,0,0,1,15.39,5.72L260.8,58.85q-12.93-6.52-24.48-6.53t-11.43,5.52q0,2.64,3.39,4a71.37,71.37,0,0,0,11.18,2.82,116.19,116.19,0,0,1,17,4.33,29.53,29.53,0,0,1,12,8q5.09,5.52,5.08,15.06a25.83,25.83,0,0,1-4.64,15q-4.65,6.72-13.88,10.67t-22.41,4A92.35,92.35,0,0,1,211.27,119.18Z" transform="translate(-26.52 -29.72)"/><path d="M93.5,205.37H67.76v-23h81.11v23H123.13v64.91H93.5Z" transform="translate(-26.52 -29.72)"/><path d="M229.6,247.93v22.35H156.53V182.39H228v22.35H185.66V215h37.16v21.34H185.66v11.55Z" transform="translate(-26.52 -29.72)"/></svg>